<?xml version="1.0" encoding="UTF-8"?>
<svg width="23px" height="21px" viewBox="0 0 23 21" version="1.1" xmlns="http://www.w3.org/2000/svg" xmlns:xlink="http://www.w3.org/1999/xlink">
    <!-- Generator: Sketch 49 (51002) - http://www.bohemiancoding.com/sketch -->
    <title>heart</title>
    <desc>Created with Sketch.</desc>
    <defs></defs>
    <g id="Page-1" stroke="none" stroke-width="1" fill="none" fill-rule="evenodd" stroke-linecap="round" stroke-linejoin="round">
        <g id="Desktop-HD-Copy-Feb2018-Copy" transform="translate(-1072.000000, -2254.000000)" stroke="#1B1F4A" stroke-width="2">
            <g id="Group" transform="translate(208.000000, 2233.000000)">
                <g id="heart" transform="translate(865.000000, 22.000000)">
                    <path d="M19.2912907,1.61182562 C18.2597665,0.579817089 16.8604287,-8.8817842e-16 15.4012907,0 C13.9421527,4.4408921e-16 12.5428149,0.579817089 11.5112907,1.61182562 L10.4512907,2.67182562 L9.3912907,1.61182562 C7.24290301,-0.536562001 3.75967841,-0.536561975 1.61129076,1.61182568 C-0.537096897,3.76021333 -0.537096923,7.24343793 1.6112907,9.39182562 L2.6712907,10.4518256 L10.4512907,18.2318256 L18.2312907,10.4518256 L19.2912907,9.39182562 C20.3232992,8.36030142 20.9031163,6.96096365 20.9031163,5.50182562 C20.9031163,4.04268759 20.3232992,2.64334982 19.2912907,1.61182562 Z" id="Shape"></path>
                </g>
            </g>
        </g>
    </g>
</svg>
