<?xml version="1.0" encoding="UTF-8"?>
<svg width="20px" height="21px" viewBox="0 0 20 21" version="1.1" xmlns="http://www.w3.org/2000/svg" xmlns:xlink="http://www.w3.org/1999/xlink">
    <!-- Generator: Sketch 48.2 (47327) - http://www.bohemiancoding.com/sketch -->
    <title>pencil2</title>
    <desc>Created with Sketch.</desc>
    <defs></defs>
    <g id="Quote-Flow-(8)---Underlying-Coverage-Modal-Auto-Liability-Copy-48" stroke="none" stroke-width="1" fill="none" fill-rule="evenodd" transform="translate(-822.000000, -20.000000)">
        <g id="pencil2" transform="translate(822.000000, 20.000000)" fill="#95A4B3">
            <path d="M18.935,5.31416667 C18.9216667,5.3275 18.9041667,5.33166667 18.8908333,5.34416667 C18.8783333,5.3575 18.8741667,5.375 18.8608333,5.38833333 L17.6566667,6.59583333 C17.6566667,6.59583333 17.6566667,6.59583333 17.6566667,6.59583333 C17.6566667,6.59666667 17.6566667,6.59666667 17.6566667,6.59666667 L5.77166667,18.5166667 C5.77083333,18.5175 5.76916667,18.5191667 5.76833333,18.52 L5.76583333,18.5225 C5.73166667,18.5566667 5.68916667,18.5725 5.65083333,18.5991667 C5.60166667,18.6341667 5.55833333,18.6766667 5.5,18.7008333 L5.49583333,18.7025 C5.495,18.7033333 5.49416667,18.7033333 5.4925,18.7041667 L1.135,20.5166667 C1.03333333,20.5591667 0.926666667,20.58 0.820833333,20.58 C0.6075,20.58 0.3975,20.4958333 0.24,20.3383333 C0.005,20.1025 -0.065,19.7483333 0.0625,19.4408333 L1.8725,15.0633333 C1.8725,15.0633333 1.8725,15.0633333 1.8725,15.0633333 L1.8725,15.0625 C1.87333333,15.0616667 1.87416667,15.0616667 1.87416667,15.0608333 C1.915,14.9625 1.97416667,14.8725 2.05083333,14.7958333 L13.9425,2.86916667 C13.9425,2.86916667 13.9425,2.86833333 13.9433333,2.86833333 C13.9433333,2.86833333 13.9433333,2.86833333 13.9441667,2.8675 L15.1475,1.66083333 C15.1591667,1.64833333 15.1758333,1.645 15.1883333,1.63333333 C15.2008333,1.61916667 15.2058333,1.60083333 15.2191667,1.58666667 C16.2441667,0.56 17.91,0.56 18.935,1.58666667 C19.9591667,2.615 19.9583333,4.2875 18.935,5.31416667 Z M2.91916667,16.8316667 L2.33916667,18.2325 L3.73666667,17.6516667 L2.91916667,16.8316667 Z M5.18583333,16.7758333 L15.9158333,6.01333333 L14.5233333,4.61583333 L3.79166667,15.3783333 L5.18583333,16.7758333 Z M17.7741667,2.75166667 C17.3891667,2.36666667 16.765,2.36666667 16.38,2.75166667 C16.3683333,2.76416667 16.3516667,2.76833333 16.3391667,2.77916667 C16.3266667,2.79333333 16.3216667,2.81166667 16.3083333,2.82583333 L15.6841667,3.45166667 L17.0766667,4.84916667 L17.7,4.22416667 C17.7133333,4.21083333 17.7308333,4.20666667 17.7441667,4.19416667 C17.7566667,4.18083333 17.7608333,4.16333333 17.7741667,4.15 C18.1583333,3.76416667 18.1583333,3.1375 17.7741667,2.75166667 Z" id="Shape"></path>
        </g>
    </g>
</svg>