<svg xmlns="http://www.w3.org/2000/svg" xmlns:xlink="http://www.w3.org/1999/xlink" preserveAspectRatio="xMidYMid" width="24" height="24" viewBox="0 0 24 24">
  <defs>
    <style>
      .cls-1 {
        fill: #1B1F4A;
        fill-rule: evenodd;
      }
    </style>
  </defs>
  <path d="M23.000,16.000 L22.092,16.000 C21.704,17.396 20.893,18.603 19.620,19.581 L20.367,21.648 C20.555,22.166 20.288,22.737 19.772,22.927 L17.014,23.939 C16.902,23.979 16.785,24.000 16.669,24.000 C16.524,24.000 16.380,23.969 16.246,23.906 C16.005,23.794 15.818,23.590 15.728,23.339 L15.117,21.645 C14.599,21.827 13.954,22.000 12.733,22.000 C11.543,22.000 10.923,21.839 10.434,21.667 L9.830,23.339 C9.740,23.590 9.554,23.794 9.312,23.906 C9.179,23.969 9.034,24.000 8.890,24.000 C8.773,24.000 8.656,23.979 8.545,23.939 L5.789,22.927 C5.272,22.737 5.007,22.166 5.193,21.648 L5.919,19.640 C4.264,18.396 3.237,16.746 2.993,14.958 C0.823,14.611 -0.000,12.485 -0.000,11.000 C-0.000,10.448 0.447,10.000 1.000,10.000 C1.553,10.000 2.000,10.448 2.000,11.000 C2.003,11.293 2.076,12.627 3.101,12.956 C3.931,9.389 7.930,6.674 12.733,6.674 C13.804,6.667 14.850,6.685 15.855,6.906 C18.019,4.874 20.930,4.995 21.062,5.006 C21.486,5.032 21.849,5.325 21.963,5.735 C22.078,6.144 21.920,6.582 21.570,6.825 C21.531,6.854 20.520,7.607 20.249,9.200 C20.902,9.752 21.384,10.242 21.869,11.000 L23.000,11.000 C23.553,11.000 24.000,11.448 24.000,12.000 L24.000,15.000 C24.000,15.552 23.553,16.000 23.000,16.000 ZM22.000,13.000 L21.310,13.000 C21.144,13.000 20.994,12.950 20.856,12.878 C20.818,12.859 20.788,12.833 20.752,12.808 C20.647,12.735 20.560,12.647 20.490,12.540 C20.474,12.517 20.447,12.507 20.434,12.483 C19.926,11.562 19.561,11.218 18.560,10.398 C18.313,10.194 18.177,9.883 18.197,9.562 C18.250,8.718 18.452,8.001 18.714,7.407 C18.092,7.650 17.441,8.038 16.907,8.655 C16.907,8.655 16.907,8.655 16.907,8.655 C16.906,8.656 16.905,8.657 16.904,8.658 C16.895,8.669 16.881,8.673 16.871,8.683 C16.791,8.768 16.701,8.843 16.598,8.895 C16.539,8.924 16.475,8.932 16.412,8.949 C16.351,8.966 16.293,8.993 16.228,8.999 C16.116,9.008 16.003,8.991 15.893,8.962 C15.877,8.957 15.860,8.962 15.844,8.956 C15.842,8.956 15.841,8.956 15.839,8.955 C15.839,8.955 15.839,8.955 15.839,8.955 C14.953,8.674 13.897,8.681 12.785,8.674 C8.481,8.674 5.017,11.155 4.942,14.225 C4.979,15.826 5.958,17.345 7.652,18.407 C8.051,18.656 8.222,19.151 8.061,19.594 L7.412,21.392 L8.290,21.715 L8.887,20.064 C8.905,20.013 8.942,19.977 8.967,19.932 C9.000,19.873 9.027,19.812 9.070,19.762 C9.113,19.712 9.164,19.676 9.215,19.636 C9.265,19.596 9.310,19.554 9.367,19.525 C9.424,19.495 9.486,19.480 9.548,19.462 C9.609,19.444 9.666,19.423 9.730,19.416 C9.796,19.410 9.860,19.421 9.927,19.427 C9.979,19.433 10.030,19.423 10.083,19.436 C10.380,19.515 10.615,19.603 10.846,19.690 C11.303,19.863 11.664,20.000 12.733,20.000 C13.820,20.000 14.209,19.854 14.702,19.670 C14.909,19.592 15.130,19.515 15.379,19.442 C15.381,19.442 15.382,19.440 15.384,19.439 C15.386,19.438 15.389,19.439 15.391,19.438 C15.416,19.431 15.433,19.423 15.459,19.415 C15.513,19.400 15.566,19.410 15.620,19.404 C15.686,19.397 15.751,19.384 15.816,19.390 C15.876,19.396 15.929,19.417 15.986,19.433 C16.054,19.452 16.122,19.467 16.184,19.500 C16.232,19.525 16.270,19.562 16.314,19.595 C16.373,19.639 16.432,19.680 16.481,19.737 C16.520,19.783 16.543,19.838 16.574,19.891 C16.603,19.942 16.644,19.983 16.664,20.041 L17.269,21.715 L18.148,21.392 L17.544,19.723 C17.529,19.698 17.517,19.672 17.504,19.645 C17.287,19.189 17.428,18.648 17.854,18.377 C19.291,17.465 20.121,16.282 20.319,14.861 C20.326,14.817 20.351,14.781 20.362,14.738 C20.380,14.673 20.397,14.611 20.427,14.552 C20.458,14.492 20.496,14.441 20.538,14.389 C20.575,14.342 20.610,14.297 20.656,14.257 C20.709,14.210 20.767,14.175 20.828,14.140 C20.878,14.112 20.925,14.086 20.980,14.066 C21.047,14.042 21.117,14.033 21.190,14.024 C21.231,14.019 21.267,14.000 21.310,14.000 L22.000,14.000 L22.000,13.000 ZM16.000,11.000 L18.000,11.000 L18.000,13.000 L16.000,13.000 L16.000,11.000 ZM12.751,5.594 C12.208,5.490 11.853,4.966 11.957,4.424 C11.983,4.287 12.000,4.145 12.000,4.000 C12.000,2.897 11.102,2.000 9.999,2.000 C8.896,2.000 8.000,2.897 8.000,4.000 C8.000,4.393 8.159,4.860 8.416,5.222 C8.735,5.672 8.630,6.296 8.180,6.616 C8.004,6.741 7.802,6.801 7.602,6.801 C7.288,6.801 6.980,6.655 6.785,6.380 C6.286,5.677 6.000,4.810 6.000,4.000 C6.000,1.794 7.794,-0.000 9.999,-0.000 C12.205,-0.000 14.000,1.794 14.000,4.000 C14.000,4.260 13.974,4.530 13.922,4.801 C13.817,5.344 13.295,5.700 12.751,5.594 Z" class="cls-1"/>
</svg>
