<?xml version="1.0" encoding="UTF-8"?>
<svg width="20px" height="20px" viewBox="0 0 20 20" version="1.1" xmlns="http://www.w3.org/2000/svg" xmlns:xlink="http://www.w3.org/1999/xlink">
    <!-- Generator: Sketch 48.2 (47327) - http://www.bohemiancoding.com/sketch -->
    <title>plus</title>
    <desc>Created with Sketch.</desc>
    <defs></defs>
    <g id="Quote-Flow-(8)---Underlying-Coverage-Modal-Auto-Liability-Copy-48" stroke="none" stroke-width="1" fill="none" fill-rule="evenodd" transform="translate(-306.000000, -21.000000)">
        <g id="Group-3" transform="translate(60.000000, 21.000000)" fill="#95A4B3">
            <g id="plus" transform="translate(246.000000, 0.000000)">
                <path d="M19.1666667,10.8333333 L10.8333333,10.8333333 L10.8333333,19.1666667 C10.8333333,19.6266667 10.46,20 10,20 C9.54,20 9.16666667,19.6266667 9.16666667,19.1666667 L9.16666667,10.8333333 L0.833333333,10.8333333 C0.373333333,10.8333333 0,10.46 0,10 C0,9.54 0.373333333,9.16666667 0.833333333,9.16666667 L9.16666667,9.16666667 L9.16666667,0.833333333 C9.16666667,0.373333333 9.54,0 10,0 C10.46,0 10.8333333,0.373333333 10.8333333,0.833333333 L10.8333333,9.16666667 L19.1666667,9.16666667 C19.6266667,9.16666667 20,9.54 20,10 C20,10.46 19.6266667,10.8333333 19.1666667,10.8333333 Z" id="Shape"></path>
            </g>
        </g>
    </g>
</svg>