<?xml version="1.0" encoding="UTF-8"?>
<svg width="26px" height="23px" viewBox="0 0 26 23" version="1.1" xmlns="http://www.w3.org/2000/svg" xmlns:xlink="http://www.w3.org/1999/xlink">
    <!-- Generator: Sketch 49 (51002) - http://www.bohemiancoding.com/sketch -->
    <title>Group 15</title>
    <desc>Created with Sketch.</desc>
    <defs></defs>
    <g id="Page-1" stroke="none" stroke-width="1" fill="none" fill-rule="evenodd">
        <g id="Desktop-HD-Copy-Feb2018-Copy" transform="translate(-707.000000, -2253.000000)" fill="#1B1F4A" fill-rule="nonzero">
            <g id="Group" transform="translate(208.000000, 2233.000000)">
                <g id="Group-15" transform="translate(512.312806, 31.737594) rotate(21.000000) translate(-512.312806, -31.737594) translate(496.312806, 16.737594)">
                    <g id="Group-14" transform="translate(22.617586, 18.981857) rotate(5.000000) translate(-22.617586, -18.981857) translate(14.617586, 14.843926)">
                        <path d="M1.60842345,8.24857456 C2.40853642,7.08416119 3.2483509,6.40624627 4.11610254,6.1688322 C4.959036,5.93820831 5.90952732,6.1030461 7.00873471,6.71128348 C10.0812532,8.41143637 12.8570988,7.65197391 14.9565916,4.59655852 L13.363299,3.59264165 C12.5631861,4.75705503 11.7233716,5.43496994 10.85562,5.67238401 C10.0126865,5.90300791 9.06219517,5.73817012 7.96298778,5.12993274 C4.89046925,3.42977985 2.11462367,4.18924231 0.0151309119,7.2446577 L1.60842345,8.24857456 Z" id="Path-8-Copy-5"></path>
                        <path d="M1.60842345,4.66557005 C2.40853642,3.50115668 3.2483509,2.82324176 4.11610254,2.58582769 C4.959036,2.3552038 5.90952732,2.52004159 7.00873471,3.12827897 C10.0812532,4.82843186 12.8570988,4.0689694 14.9565916,1.01355401 L13.363299,0.0096371411 C12.5631861,1.17405052 11.7233716,1.85196543 10.85562,2.0893795 C10.0126865,2.3200034 9.06219517,2.15516561 7.96298778,1.54692823 C4.89046925,-0.153224662 2.11462367,0.606237798 0.0151309119,3.66165319 L1.60842345,4.66557005 Z" id="Path-8-Copy-5"></path>
                    </g>
                    <path d="M20.4943484,24.4318656 L19.5219439,22.8606871 C18.0651733,23.6874304 16.4034267,24.1296353 14.6695032,24.1296353 C9.4040114,24.1296353 5.13548693,20.0421441 5.13548693,14.9999682 C5.13548693,9.9577923 9.4040114,5.87030112 14.6695032,5.87030112 C19.934995,5.87030112 24.2035194,9.9577923 24.2035194,14.9999682 C24.2035194,16.0687025 24.0125027,17.1097579 23.6434873,18.0917359 L25.4380999,18.7101389 C25.8735134,17.5514706 26.1107902,16.3022537 26.1107902,14.9999682 C26.1107902,8.94910989 20.9883515,4.04392006 14.6695032,4.04392006 C8.35065487,4.04392006 3.22821622,8.94910989 3.22821622,14.9999682 C3.22821622,21.0508265 8.35065487,25.9560164 14.6695032,25.9560164 C16.7966169,25.9560164 18.7881538,25.4001615 20.4943484,24.4318656 Z M20.4943484,24.4318656 L19.5219439,22.8606871 C18.0651733,23.6874304 16.4034267,24.1296353 14.6695032,24.1296353 C9.4040114,24.1296353 5.13548693,20.0421441 5.13548693,14.9999682 C5.13548693,9.9577923 9.4040114,5.87030112 14.6695032,5.87030112 C19.934995,5.87030112 24.2035194,9.9577923 24.2035194,14.9999682 C24.2035194,16.0687025 24.0125027,17.1097579 23.6434873,18.0917359 L25.4380999,18.7101389 C25.8735134,17.5514706 26.1107902,16.3022537 26.1107902,14.9999682 C26.1107902,8.94910989 20.9883515,4.04392006 14.6695032,4.04392006 C8.35065487,4.04392006 3.22821622,8.94910989 3.22821622,14.9999682 C3.22821622,21.0508265 8.35065487,25.9560164 14.6695032,25.9560164 C16.7966169,25.9560164 18.7881538,25.4001615 20.4943484,24.4318656 Z" id="Oval-8" transform="translate(14.669503, 14.999968) rotate(-20.000000) translate(-14.669503, -14.999968) "></path>
                </g>
            </g>
        </g>
    </g>
</svg>
